<?xml version="1.0" encoding="UTF-8" standalone="no"?>
<!-- Generator: Adobe Illustrator 19.1.0, SVG Export Plug-In . SVG Version: 6.00 Build 0)  -->

<svg
   version="1.1"
   id="Capa_1"
   x="0px"
   y="0px"
   viewBox="0 0 472.7 472.7"
   style="enable-background:new 0 0 472.7 472.7;"
   xml:space="preserve"
   sodipodi:docname="health.svg"
   inkscape:version="1.2-alpha (0bd5040e63, 2022-02-05)"
   xmlns:inkscape="http://www.inkscape.org/namespaces/inkscape"
   xmlns:sodipodi="http://sodipodi.sourceforge.net/DTD/sodipodi-0.dtd"
   xmlns="http://www.w3.org/2000/svg"
   xmlns:svg="http://www.w3.org/2000/svg"><defs
   id="defs2124" /><sodipodi:namedview
   id="namedview2122"
   pagecolor="#505050"
   bordercolor="#eeeeee"
   borderopacity="1"
   inkscape:pageshadow="0"
   inkscape:pageopacity="0"
   inkscape:pagecheckerboard="0"
   inkscape:blackoutopacity="0.0"
   showgrid="false"
   inkscape:zoom="0.92764965"
   inkscape:cx="476.47299"
   inkscape:cy="119.65724"
   inkscape:window-width="1920"
   inkscape:window-height="1057"
   inkscape:window-x="1912"
   inkscape:window-y="-8"
   inkscape:window-maximized="1"
   inkscape:current-layer="Capa_1" />
<g
   id="g2089"
   style="fill:#f6f6f6">
	<path
   id="XMLID_810_"
   d="M433.5,67c-25.3-25.3-59-39.3-94.8-39.3s-69.6,14-94.9,39.4l-7.3,7.3l-7.5-7.5   c-25.4-25.4-59.1-39.4-95-39.4c-35.8,0-69.4,13.9-94.7,39.3C13.9,92.2,0,125.9,0,161.7s14,69.5,39.4,94.8l182.7,182.7   c3.8,3.8,9,6,14.5,6c5.4,0,10.6-2.2,14.5-6l182.2-182.4c25.4-25.4,39.3-59.1,39.4-94.9S458.8,92.4,433.5,67z M132.5,117.2   c-23.9,0-43.4,19.5-43.4,43.4c0,11-8.9,19.9-19.9,19.9s-19.9-8.9-19.9-19.9c0-45.8,37.3-83.1,83.1-83.1c11,0,19.9,8.9,19.9,19.9   C152.4,108.4,143.5,117.2,132.5,117.2z"
   style="fill:#f6f6f6" />
</g>
<g
   id="g2091">
</g>
<g
   id="g2093">
</g>
<g
   id="g2095">
</g>
<g
   id="g2097">
</g>
<g
   id="g2099">
</g>
<g
   id="g2101">
</g>
<g
   id="g2103">
</g>
<g
   id="g2105">
</g>
<g
   id="g2107">
</g>
<g
   id="g2109">
</g>
<g
   id="g2111">
</g>
<g
   id="g2113">
</g>
<g
   id="g2115">
</g>
<g
   id="g2117">
</g>
<g
   id="g2119">
</g>
</svg>
