<?xml version="1.0" encoding="iso-8859-1"?>
<!-- Generator: Adobe Illustrator 19.0.0, SVG Export Plug-In . SVG Version: 6.00 Build 0)  -->
<svg version="1.1" id="Capa_1" xmlns="http://www.w3.org/2000/svg" xmlns:xlink="http://www.w3.org/1999/xlink" x="0px" y="0px"
	 viewBox="0 0 59 59" style="enable-background:new 0 0 59 59;" xml:space="preserve">
<g>
	<circle cx="37" cy="45.5" r="1.5"/>
	<circle cx="46" cy="45.5" r="1.5"/>
	<path d="M27.5,24V13.5c0-1.93,1.57-3.5,3.5-3.5s3.5,1.57,3.5,3.5V17c0,2.757,2.243,5,5,5s5-2.243,5-5V1c0-0.553-0.448-1-1-1
		s-1,0.447-1,1v16c0,1.654-1.346,3-3,3s-3-1.346-3-3v-3.5c0-3.032-2.467-5.5-5.5-5.5s-5.5,2.468-5.5,5.5V24h-25v35h58V24H27.5z
		 M53.5,54h-48V29h23v8l25-0.001V54z"/>
	<polygon points="17.5,38 15.5,38 15.5,41 12.5,41 12.5,43 15.5,43 15.5,46 17.5,46 17.5,43 20.5,43 20.5,41 17.5,41 	"/>
	<path d="M22.5,45h-3v3h-6v-3h-3v-6h3v-3h6v3h3V45z M46,42c1.93,0,3.5,1.57,3.5,3.5S47.93,49,46,49s-3.5-1.57-3.5-3.5
		S44.07,42,46,42z M37,42c1.93,0,3.5,1.57,3.5,3.5S38.93,49,37,49s-3.5-1.57-3.5-3.5S35.07,42,37,42z M30.5,45c0.552,0,1,0.447,1,1
		s-0.448,1-1,1h-5c-0.552,0-1-0.447-1-1s0.448-1,1-1H30.5z"/>
</g>
<g>
</g>
<g>
</g>
<g>
</g>
<g>
</g>
<g>
</g>
<g>
</g>
<g>
</g>
<g>
</g>
<g>
</g>
<g>
</g>
<g>
</g>
<g>
</g>
<g>
</g>
<g>
</g>
<g>
</g>
</svg>
